<?xml version="1.0" standalone="no"?>
<!DOCTYPE svg PUBLIC "-//W3C//DTD SVG 20010904//EN"
 "http://www.w3.org/TR/2001/REC-SVG-20010904/DTD/svg10.dtd">
<svg version="1.0" xmlns="http://www.w3.org/2000/svg"
 width="20px" height="20px" viewBox="0 0 512.000000 512.000000"
 preserveAspectRatio="xMidYMid meet">

<g transform="translate(0.000000,512.000000) scale(0.100000,-0.100000)"
fill="#fff" stroke="none">
<path d="M2785 4443 l-224 -338 330 -330 329 -330 120 120 120 120 -231 231
-231 231 98 147 97 146 391 0 391 0 97 -148 98 -147 -230 -230 -230 -230 120
-120 120 -120 329 329 329 329 -226 338 -225 339 -574 0 -574 0 -224 -337z"/>
<path d="M1449 3735 c-553 -87 -1028 -436 -1275 -940 -263 -538 -225 -1169
103 -1675 340 -523 950 -825 1561 -772 170 15 254 32 406 83 524 174 926 583
1090 1109 61 198 71 269 71 510 0 186 -3 229 -23 322 -22 102 -73 273 -86 286
-3 3 -43 -9 -89 -26 -170 -65 -222 -89 -220 -103 1 -8 15 -59 32 -115 40 -138
55 -269 48 -428 -14 -338 -144 -640 -382 -885 -155 -160 -331 -272 -540 -344
-268 -92 -576 -96 -846 -11 -405 128 -737 449 -878 847 -176 499 -50 1051 325
1422 178 176 381 291 631 357 112 30 128 31 318 32 159 1 217 -3 283 -17 111
-25 232 -66 321 -111 40 -21 77 -34 81 -29 15 14 160 272 160 283 0 17 -198
106 -320 144 -177 55 -322 76 -518 75 -92 -1 -206 -7 -253 -14z"/>
<path d="M3320 3390 c-623 -110 -1108 -582 -1241 -1209 -42 -200 -36 -474 16
-678 23 -89 97 -289 114 -306 5 -5 77 26 160 67 l151 76 -24 48 c-35 70 -74
201 -92 310 -30 179 -5 423 59 592 177 469 622 780 1116 780 248 0 462 -65
679 -207 84 -54 262 -236 321 -328 382 -587 196 -1352 -414 -1699 -261 -150
-606 -193 -887 -112 l-79 23 -8 -21 c-43 -114 -101 -281 -101 -291 0 -14 115
-50 233 -72 131 -25 404 -23 544 5 314 62 573 201 798 427 314 313 474 722
451 1155 -37 731 -583 1338 -1300 1445 -141 21 -362 18 -496 -5z"/>
</g>
</svg>
